<?xml version="1.0" encoding="UTF-8" standalone="no"?>
<!-- Created with Inkscape (http://www.inkscape.org/) -->

<svg
   width="2025.8007"
   height="1816.9166"
   viewBox="0 0 535.99307 480.72587"
   version="1.1"
   id="svg1"
   xml:space="preserve"
   inkscape:version="1.4.1 (93de688d07, 2025-03-30)"
   sodipodi:docname="blobstudio-b-icon.svg"
   xmlns:inkscape="http://www.inkscape.org/namespaces/inkscape"
   xmlns:sodipodi="http://sodipodi.sourceforge.net/DTD/sodipodi-0.dtd"
   xmlns:xlink="http://www.w3.org/1999/xlink"
   xmlns="http://www.w3.org/2000/svg"
   xmlns:svg="http://www.w3.org/2000/svg"><sodipodi:namedview
     id="namedview1"
     pagecolor="#505050"
     bordercolor="#eeeeee"
     borderopacity="1"
     inkscape:showpageshadow="0"
     inkscape:pageopacity="0"
     inkscape:pagecheckerboard="0"
     inkscape:deskcolor="#505050"
     inkscape:document-units="mm"
     inkscape:zoom="0.24766976"
     inkscape:cx="1562.5646"
     inkscape:cy="918.56188"
     inkscape:window-width="1900"
     inkscape:window-height="1028"
     inkscape:window-x="0"
     inkscape:window-y="0"
     inkscape:window-maximized="1"
     inkscape:current-layer="layer1" /><defs
     id="defs1"><rect
       x="1509.2396"
       y="696.74683"
       width="1808.3156"
       height="291.09662"
       id="rect16" /><linearGradient
       id="linearGradient13"
       inkscape:collect="always"><stop
         style="stop-color:#b26afd;stop-opacity:1;"
         offset="0.23796791"
         id="stop12" /><stop
         style="stop-color:#d45dff;stop-opacity:0;"
         offset="1"
         id="stop13" /></linearGradient><linearGradient
       id="linearGradient11"
       inkscape:collect="always"><stop
         style="stop-color:#ff4f4f;stop-opacity:1;"
         offset="0.23796791"
         id="stop10" /><stop
         style="stop-color:#e93636;stop-opacity:0;"
         offset="1"
         id="stop11" /></linearGradient><linearGradient
       id="linearGradient8"
       inkscape:collect="always"><stop
         style="stop-color:#56ffab;stop-opacity:1;"
         offset="0.23796791"
         id="stop8" /><stop
         style="stop-color:#39e492;stop-opacity:0;"
         offset="1"
         id="stop9" /></linearGradient><inkscape:path-effect
       effect="spiro"
       id="path-effect20"
       is_visible="true"
       lpeversion="1" /><inkscape:path-effect
       effect="spiro"
       id="path-effect19"
       is_visible="true"
       lpeversion="1" /><inkscape:path-effect
       effect="spiro"
       id="path-effect18"
       is_visible="true"
       lpeversion="1" /><inkscape:path-effect
       effect="spiro"
       id="path-effect17"
       is_visible="true"
       lpeversion="1" /><inkscape:path-effect
       effect="spiro"
       id="path-effect16"
       is_visible="true"
       lpeversion="1" /><radialGradient
       inkscape:collect="always"
       xlink:href="#linearGradient8"
       id="radialGradient9"
       cx="135.46666"
       cy="135.46667"
       fx="135.46666"
       fy="135.46667"
       r="135.46666"
       gradientUnits="userSpaceOnUse"
       gradientTransform="matrix(1.3847611,0,0,0.79925507,1.3850136e-5,0)" /><filter
       inkscape:collect="always"
       style="color-interpolation-filters:sRGB"
       id="filter9"
       x="-0.26876911"
       y="-0.46565983"
       width="1.5375382"
       height="1.9313197"><feGaussianBlur
         inkscape:collect="always"
         stdDeviation="42.015097"
         id="feGaussianBlur9" /></filter><radialGradient
       inkscape:collect="always"
       xlink:href="#linearGradient11"
       id="radialGradient9-6"
       cx="135.46666"
       cy="135.46667"
       fx="135.46666"
       fy="135.46667"
       r="135.46666"
       gradientUnits="userSpaceOnUse"
       gradientTransform="matrix(1.3847611,0,0,0.79925507,1.3850136e-5,0)" /><filter
       inkscape:collect="always"
       style="color-interpolation-filters:sRGB"
       id="filter9-1"
       x="-0.26876911"
       y="-0.46565983"
       width="1.5375382"
       height="1.9313197"><feGaussianBlur
         inkscape:collect="always"
         stdDeviation="42.015097"
         id="feGaussianBlur9-2" /></filter><radialGradient
       inkscape:collect="always"
       xlink:href="#linearGradient13"
       id="radialGradient9-6-0"
       cx="135.46666"
       cy="135.46667"
       fx="135.46666"
       fy="135.46667"
       r="135.46666"
       gradientUnits="userSpaceOnUse"
       gradientTransform="matrix(1.3847611,0,0,0.79925507,1.3850136e-5,0)" /><filter
       inkscape:collect="always"
       style="color-interpolation-filters:sRGB"
       id="filter9-1-6"
       x="-0.26876911"
       y="-0.46565983"
       width="1.5375382"
       height="1.9313197"><feGaussianBlur
         inkscape:collect="always"
         stdDeviation="42.015097"
         id="feGaussianBlur9-2-1" /></filter><mask
       maskUnits="userSpaceOnUse"
       id="mask14"><g
         id="g15"
         inkscape:label="mask"><rect
           style="fill:#ffffff;fill-opacity:1;stroke:none;stroke-width:7.9375;stroke-opacity:1"
           id="rect15"
           width="608.92572"
           height="526.66736"
           x="-100.41933"
           y="-111.10224" /><path
           id="path15"
           style="display:inline;fill:#000000;fill-opacity:1;stroke:none;stroke-width:2.64698;stroke-linecap:butt;stroke-dasharray:none;stroke-opacity:1"
           inkscape:label="BlackObserver"
           d="m 170.83762,83.369313 c 19.00525,0 36.56684,10.139189 46.06948,26.598227 9.50263,16.45905 9.50263,36.73742 0,53.19647 l 71.29864,41.16422 c -11.79139,-7.03691 -25.47778,-10.86406 -39.20909,-10.96323 -13.73132,-0.0992 -27.4724,3.52973 -39.36439,10.39556 -11.89197,6.86582 -21.90469,16.95107 -28.68446,28.89232 -6.41793,11.30392 -9.92259,24.2435 -10.1102,37.23955 -0.18728,-12.99609 -3.69218,-25.93564 -10.11018,-37.23955 -6.77983,-11.94128 -16.7924,-22.02657 -28.68446,-28.89232 -11.89204,-6.8657 -25.63309,-10.49371 -39.364397,-10.39452 -12.99925,0.0939 -25.95748,3.52789 -37.30675,9.8641 11.16203,-6.66059 20.61563,-16.16573 27.19657,-27.3765 6.95156,-11.84208 10.67887,-25.5562 10.67887,-39.28786 0,-13.73167 -3.72731,-27.44578 -10.67887,-39.287875 -6.58082,-11.210552 -16.03483,-20.715935 -27.19657,-27.376496 11.34908,6.336101 24.30772,9.771256 37.30675,9.865138 13.731317,0.09924 27.472397,-3.529717 39.364397,-10.395565 11.89196,-6.865829 21.90468,-16.951041 28.68446,-28.892294 6.77977,-11.94125 10.3085,-25.707548 10.1102,-39.4377825 z"
           sodipodi:nodetypes="csccssscssscssscssscc" /></g></mask><filter
       inkscape:collect="always"
       style="color-interpolation-filters:sRGB"
       id="filter15"
       x="-0.017932052"
       y="-0.013078245"
       width="1.0358643"
       height="1.0261565"><feGaussianBlur
         inkscape:collect="always"
         stdDeviation="1.4570806"
         id="feGaussianBlur15" /></filter></defs><g
     inkscape:label="Layer 1"
     inkscape:groupmode="layer"
     id="layer1"
     transform="translate(100.41933,88.89597)"><g
       id="g6"
       inkscape:label="icon"
       mask="url(#mask14)"><ellipse
         style="display:inline;mix-blend-mode:lighten;fill:url(#radialGradient9);stroke:none;stroke-width:7.13103;filter:url(#filter9)"
         id="path6"
         cx="187.58897"
         cy="108.27242"
         rx="187.58896"
         ry="108.27242"
         transform="matrix(0.74860423,0,0,0.88158755,18.040522,0)"
         inkscape:label="g" /><ellipse
         style="display:inline;mix-blend-mode:lighten;fill:url(#radialGradient9-6);stroke:none;stroke-width:7.13103;filter:url(#filter9-1)"
         id="path6-9"
         cx="187.58897"
         cy="108.27242"
         rx="187.58896"
         ry="108.27242"
         transform="matrix(0.84943708,0,0,0.96106157,31.229709,43.935512)"
         inkscape:label="r" /><ellipse
         style="display:inline;mix-blend-mode:lighten;fill:url(#radialGradient9-6-0);stroke:none;stroke-width:7.13103;filter:url(#filter9-1-6)"
         id="path6-9-9"
         cx="187.58897"
         cy="108.27242"
         rx="187.58896"
         ry="108.27242"
         transform="matrix(0.74860423,0,0,1.0266393,-28.05595,65.993986)"
         inkscape:label="p" /><path
         id="path16"
         style="display:inline;mix-blend-mode:normal;fill:none;fill-opacity:1;stroke:#000000;stroke-width:2.64698;stroke-linecap:butt;stroke-dasharray:none;stroke-opacity:1;filter:url(#filter15)"
         inkscape:label="BlackObserver"
         d="m 170.83762,83.369313 c 19.00525,0 36.56684,10.139189 46.06948,26.598227 9.50263,16.45905 9.50263,36.73742 0,53.19647 l 71.29864,41.16422 c -11.79139,-7.03691 -25.47778,-10.86406 -39.20909,-10.96323 -13.73132,-0.0992 -27.4724,3.52973 -39.36439,10.39556 -11.89197,6.86582 -21.90469,16.95107 -28.68446,28.89232 -6.41793,11.30392 -9.92259,24.2435 -10.1102,37.23955 -0.18728,-12.99609 -3.69218,-25.93564 -10.11018,-37.23955 -6.77983,-11.94128 -16.7924,-22.02657 -28.68446,-28.89232 -11.89204,-6.8657 -25.63309,-10.49371 -39.364397,-10.39452 -12.99925,0.0939 -25.95748,3.52789 -37.30675,9.8641 11.16203,-6.66059 20.61563,-16.16573 27.19657,-27.3765 6.95156,-11.84208 10.67887,-25.5562 10.67887,-39.28786 0,-13.73167 -3.72731,-27.44578 -10.67887,-39.287875 -6.58082,-11.210552 -16.03483,-20.715935 -27.19657,-27.376496 11.34908,6.336101 24.30772,9.771256 37.30675,9.865138 13.731317,0.09924 27.472397,-3.529717 39.364397,-10.395565 11.89196,-6.865829 21.90468,-16.951041 28.68446,-28.892294 6.77977,-11.94125 10.3085,-25.707548 10.1102,-39.4377825 z"
         sodipodi:nodetypes="csccssscssscssscssscc" /></g></g></svg>
