<?xml version="1.0" encoding="UTF-8" standalone="no"?>
<!-- Created with Inkscape (http://www.inkscape.org/) -->

<svg
   width="2347.3057"
   height="576.33362"
   viewBox="0 0 621.05794 152.48827"
   version="1.1"
   id="svg1"
   inkscape:version="1.4 (e7c3feb100, 2024-10-09)"
   sodipodi:docname="unknown_w.svg"
   xmlns:inkscape="http://www.inkscape.org/namespaces/inkscape"
   xmlns:sodipodi="http://sodipodi.sourceforge.net/DTD/sodipodi-0.dtd"
   xmlns="http://www.w3.org/2000/svg"
   xmlns:svg="http://www.w3.org/2000/svg">
  <sodipodi:namedview
     id="namedview1"
     pagecolor="#505050"
     bordercolor="#eeeeee"
     borderopacity="1"
     inkscape:showpageshadow="0"
     inkscape:pageopacity="0"
     inkscape:pagecheckerboard="0"
     inkscape:deskcolor="#505050"
     inkscape:document-units="mm"
     inkscape:zoom="0.47625"
     inkscape:cx="1203.1496"
     inkscape:cy="406.29921"
     inkscape:window-width="1900"
     inkscape:window-height="1028"
     inkscape:window-x="0"
     inkscape:window-y="0"
     inkscape:window-maximized="1"
     inkscape:current-layer="layer1" />
  <defs
     id="defs1">
    <rect
       x="272.96588"
       y="201.5748"
       width="3838.3203"
       height="743.30707"
       id="rect1" />
  </defs>
  <g
     inkscape:label="logo"
     inkscape:groupmode="layer"
     id="layer1"
     inkscape:highlight-color="#b59ceb"
     transform="translate(-238.3194,-57.602002)">
    <g
       id="text1"
       style="font-size:500px;font-family:Marcellus;-inkscape-font-specification:Marcellus;white-space:pre;fill:#ffffff;stroke-width:5.00032;stroke-linejoin:bevel"
       inkscape:label="unknown"
       transform="matrix(0.26458333,0,0,0.26458333,163.71569,9.7872571)"
       aria-label="unk now n">
      <path
         style="font-family:P052;-inkscape-font-specification:P052"
         d="m 524.4668,420.0088 -4.5,-2 c -24.5,10.5 -52,17.5 -78,20.5 v 14 h 18.5 c 20.5,0.5 21.5,2.5 22,36.5 v 81.5 c 0,11 -7,25 -18.5,36.5 -14,14 -30,21 -49.5,21 -17.5,0 -31.5,-5.5 -39.5,-15 -7,-8 -10.5,-23.5 -10.5,-45.5 v -147.5 l -4.5,-2 c -24.5,10.5 -52,17.5 -78,20.5 v 14 h 18.5 c 20.5,0.5 21.5,2.5 22,36.5 v 84 c 0,35 3,50.5 12,63 11,15 30,22.5 58.5,22.5 23,0 42,-7 56,-19.5 l 33.5,-31 c 0,15 -0.5,24 -2,46 25.5,-1 33.5,-1.5 41.5,-1.5 7.5,0 16.5,0.5 41.5,1.5 v -15 l -20.5,-1.5 c -17.5,-1.5 -18.5,-3.5 -18.5,-36 z m 255.0003,234 c 23,-1 31,-1.5 39.5,-1.5 7.5,0 16.5,0.5 41.5,1.5 v -15 l -20.5,-1.5 c -17.5,-1.5 -18,-3.5 -18.5,-36 v -96.5 c 0,-58.5 -27.5,-87 -83.5,-87 -18.5,0 -29,3 -39.5,12.5 l -38,33 v -43.5 l -4.5,-2 c -24.5,10.5 -52,17.5 -78,20.5 v 14 h 18.5 c 20.5,0.5 21.5,2.5 22,36.5 v 112.5 c 0,32.5 -1.5,34.5 -18.5,36 l -22.5,1.5 v 15 c 32,-1 46,-1.5 62,-1.5 16,0 30,0.5 62,1.5 v -15 l -22.5,-1.5 c -17.5,-1.5 -18.5,-3.5 -18.5,-36 v -106 c 0,-22.5 33,-47 63.5,-47 33.5,0 55.5,25 55.5,63.5 z m 96.50037,-15 v 15 c 35,-1 49.5,-1.5 63,-1.5 14.5,0 28,0.5 61,1.5 v -15 l -22,-1.5 c -17.5,-1.5 -18.5,-3.5 -18.5,-36 v -69 l 132.50003,126 48,-14.5 v -11.5 c -12,0 -26.5,-8.5 -42.5,-24 l -63,-62.5 c -18,-17.5 -23.5,-24 -32,-34 l 64.5,-50.5 c 24,-18 36.5,-23.5 54,-23.5 v -15 h -50 c -32,32 -55.5,54 -75.00003,69.5 l -36.5,29.5 v -228.5 l -4.5,-4 c -22,8.5 -38.5,12.5 -78,18.5 v 14 h 28 c 9,0 12.5,5.5 12.5,20.5 v 259 c -0.5,32.5 -1,34.5 -18.5,36 z"
         id="path8" />
      <path
         style="font-family:'Nimbus Mono PS';-inkscape-font-specification:'Nimbus Mono PS'"
         d="m 1379.8697,443.0088 h -40.5 c -11,0 -16,4 -16,12.5 0,8.5 5.5,13 16,13 h 14.5 v 158.5 h -20 c -11,0 -16.5,4.5 -16.5,12.5 0,8.5 6,13 16.5,13 h 66 c 10.5,0 16,-4.5 16,-13 0,-8 -5.5,-12.5 -16,-12.5 h -20 v -120.5 c 30.5,-37.5 43,-45 73.5,-45 18,0 27.5,3 38.5,12 12,10 18,21.5 18,35 v 118.5 h -14 c -11,0 -16.5,4.5 -16.5,12.5 0,8.5 6,13 16.5,13 h 54.5 c 10,0 16,-4.5 16,-13 0,-8 -5.5,-12.5 -16,-12.5 h -14.5 v -122 c 0,-39 -35,-69 -81,-69 -30.5,0 -48.5,9 -75,37 z m 365.5002,-7 c -67,0 -118.5,49 -118.5,112.5 0,62 52,112 117,112 65,0 116.5,-49.5 116.5,-112.5 0,-61.5 -51.5,-112 -115,-112 z m -3,25.5 c 52,0 92,37.5 92,87 0,48 -40,86.5 -90.5,86.5 -50.5,0 -91,-38.5 -91,-87 0,-47.5 40,-86.5 89.5,-86.5 z m 374.0002,191 41,-184 h 7.5 c 11,0 16.5,-4.5 16.5,-13 0,-8.5 -5,-12.5 -16.5,-12.5 h -55.5 c -11,0 -16,4 -16,12.5 0,8.5 5.5,13 16,13 h 22 l -32,144.5 -41.5,-118.5 h -29.5 l -41,118.5 -33,-144.5 h 23 c 10.5,0 16.5,-4.5 16.5,-13 0,-8.5 -5.5,-12.5 -16.5,-12.5 h -55.5 c -11,0 -16,4 -16,12.5 0,8.5 5.5,13 16,13 h 7.5 l 42,184 h 29.5 l 43,-122 43.5,122 z"
         id="path9" />
      <path
         style="font-family:P052;-inkscape-font-specification:P052"
         d="m 2548.2725,654.0088 c 23,-1 31,-1.5 39.5,-1.5 7.5,0 16.5,0.5 41.5,1.5 v -15 l -20.5,-1.5 c -17.5,-1.5 -18,-3.5 -18.5,-36 v -96.5 c 0,-58.5 -27.5,-87 -83.5,-87 -18.5,0 -29,3 -39.5,12.5 l -38,33 v -43.5 l -4.5,-2 c -24.5,10.5 -52,17.5 -78,20.5 v 14 h 18.5 c 20.5,0.5 21.5,2.5 22,36.5 v 112.5 c 0,32.5 -1.5,34.5 -18.5,36 l -22.5,1.5 v 15 c 32,-1 46,-1.5 62,-1.5 16,0 30,0.5 62,1.5 v -15 l -22.5,-1.5 c -17.5,-1.5 -18.5,-3.5 -18.5,-36 v -106 c 0,-22.5 33,-47 63.5,-47 33.5,0 55.5,25 55.5,63.5 z"
         id="path10" />
    </g>
    <g
       id="g8"
       inkscape:label="brackets"
       transform="translate(10.555556)"
       style="stroke-width:7.9375;stroke-dasharray:none">
      <path
         id="rect2"
         style="fill:none;stroke:#ffffff;stroke-width:7.9375;stroke-linejoin:miter;stroke-dasharray:none"
         d="m 701.68349,206.12153 h 54.44899 V 64.811804 h -54.44899"
         sodipodi:nodetypes="cccc"
         inkscape:label="r_brckt" />
      <path
         id="path4"
         style="fill:none;stroke:#ffffff;stroke-width:7.9375;stroke-linejoin:miter;stroke-dasharray:none"
         d="M 526.63603,64.811804 H 474.26735 V 206.12153 h 52.36868"
         sodipodi:nodetypes="cccc"
         inkscape:label="l_brckt" />
      <path
         d="m 529.95241,63.094752 q 0,0.5715 0.47625,0.873125 0.49212,0.301625 1.778,0.396875 1.38112,0.111125 2.0955,0.66675 0.73025,0.53975 0.73025,1.5875 v 0.09525 q 0,0.5715 -0.23813,1.031875 -0.22225,0.4445 -0.635,0.762 -0.39687,0.3175 -0.98425,0.47625 -0.5715,0.174625 -1.25412,0.174625 -0.92075,0 -1.5875,-0.238125 -0.65088,-0.254 -1.09538,-0.650875 -0.42862,-0.41275 -0.65087,-0.92075 -0.22225,-0.523875 -0.254,-1.04775 l 1.17475,-0.28575 q 0.0794,0.904875 0.6985,1.4605 0.61912,0.53975 1.651,0.53975 0.87312,0 1.397,-0.333375 0.53975,-0.34925 0.53975,-0.968375 0,-0.66675 -0.52388,-0.9525 -0.52387,-0.28575 -1.69862,-0.365125 -1.36525,-0.09525 -2.0955,-0.635 -0.73025,-0.53975 -0.73025,-1.571625 v -0.09525 q 0,-0.555625 0.23812,-0.968375 0.23813,-0.428625 0.635,-0.714375 0.41275,-0.28575 0.92075,-0.428625 0.508,-0.142875 1.06363,-0.142875 0.77787,0 1.36525,0.22225 0.58737,0.206375 0.98425,0.555625 0.39687,0.333375 0.60325,0.777875 0.22225,0.4445 0.28575,0.889 l -1.17475,0.28575 q -0.0794,-0.762 -0.61913,-1.190625 -0.52387,-0.428625 -1.38112,-0.428625 -0.33338,0 -0.65088,0.07937 -0.30162,0.0635 -0.53975,0.206375 -0.23812,0.142875 -0.381,0.365125 -0.14287,0.206375 -0.14287,0.492125 z m 10.52511,-4.3815 q 0,-0.460375 0.3175,-0.777875 0.33338,-0.333375 0.79375,-0.333375 0.46038,0 0.77788,0.333375 0.33337,0.3175 0.33337,0.777875 0,0.460375 -0.33337,0.79375 -0.3175,0.3175 -0.77788,0.3175 -0.46037,0 -0.79375,-0.3175 -0.3175,-0.333375 -0.3175,-0.79375 z m -2.25425,9.0805 h 2.76225 v -5.588 h -2.4765 v -1.143 h 3.71475 v 6.731 h 2.57175 v 1.143 h -6.57225 z m 16.4465,0 v 1.143 h -6.858 v -1.9685 l 5.61975,-4.572 v -0.1905 h -5.5245 v -1.143 h 6.57225 v 1.905 l -5.6515,4.6355 v 0.1905 z m 3.69886,-2.413 q 0.0476,1.17475 0.73025,1.889125 0.68263,0.714375 1.905,0.714375 0.55563,0 0.96838,-0.127 0.41275,-0.127 0.6985,-0.34925 0.30162,-0.22225 0.47625,-0.508 0.1905,-0.301625 0.30162,-0.635 l 1.17475,0.3175 q -0.33337,1.095375 -1.23825,1.793875 -0.889,0.682625 -2.413,0.682625 -0.84137,0 -1.55575,-0.28575 -0.6985,-0.301625 -1.2065,-0.841375 -0.508,-0.53975 -0.79375,-1.285875 -0.28575,-0.746125 -0.28575,-1.651 v -0.381 q 0,-0.8255 0.28575,-1.539875 0.30163,-0.714375 0.8255,-1.222375 0.52388,-0.523875 1.22238,-0.809625 0.71437,-0.301625 1.53987,-0.301625 0.96838,0 1.66688,0.365125 0.71437,0.34925 1.15887,0.873125 0.46038,0.523875 0.66675,1.143 0.22225,0.619125 0.22225,1.143 v 1.016 z m 2.63525,-3.3655 q -0.52387,0 -0.98425,0.174625 -0.4445,0.15875 -0.79375,0.460375 -0.33337,0.301625 -0.55562,0.714375 -0.20638,0.396875 -0.26988,0.873125 h 5.08 q -0.0317,-0.508 -0.254,-0.92075 -0.20637,-0.41275 -0.55562,-0.6985 -0.33338,-0.28575 -0.77788,-0.4445 -0.42862,-0.15875 -0.889,-0.15875 z m 5.95312,7.6835 h 7.39775 v 1.143 H 566.957 Z m 9.66787,-8.636 h 2.4765 v -3.2385 h 1.23825 v 3.2385 h 3.048 v 1.143 h -3.048 v 5.11175 q 0,0.47625 0.42862,0.47625 h 2.23838 v 1.143 h -2.68288 q -0.53975,0 -0.889,-0.34925 -0.33337,-0.34925 -0.33337,-0.889 v -5.49275 h -2.4765 z m 22.14561,-2.3495 q 0,-0.460375 0.3175,-0.777875 0.33337,-0.333375 0.79375,-0.333375 0.46037,0 0.77787,0.333375 0.33338,0.3175 0.33338,0.777875 0,0.460375 -0.33338,0.79375 -0.3175,0.3175 -0.77787,0.3175 -0.46038,0 -0.79375,-0.3175 -0.3175,-0.333375 -0.3175,-0.79375 z m -2.25425,9.0805 h 2.76225 v -5.588 h -2.4765 v -1.143 h 3.71475 v 6.731 h 2.57175 v 1.143 h -6.57225 z m 9.68374,-6.12775 h 6.63575 v 1.143 h -6.63575 z m 0,2.286 h 6.63575 v 1.143 h -6.63575 z m 9.12812,-1.80975 q 0,-2.159 1.03187,-3.349625 1.03188,-1.190625 2.87338,-1.190625 1.8415,0 2.87337,1.190625 1.03188,1.190625 1.03188,3.349625 v 2.4765 q 0,2.2225 -1.03188,3.381375 -1.03187,1.158875 -2.87337,1.158875 -1.8415,0 -2.87338,-1.158875 -1.03187,-1.158875 -1.03187,-3.381375 z m 3.90525,5.81025 q 1.28587,0 1.92087,-0.889 0.65088,-0.904875 0.65088,-2.54 v -2.286 q 0,-0.762 -0.15875,-1.381125 -0.15875,-0.635 -0.49213,-1.0795 -0.3175,-0.460375 -0.80962,-0.714375 -0.47625,-0.254 -1.11125,-0.254 -0.65088,0 -1.12713,0.254 -0.47625,0.254 -0.80962,0.714375 -0.3175,0.4445 -0.47625,1.0795 -0.15875,0.619125 -0.15875,1.381125 v 2.286 q 0,1.635125 0.635,2.54 0.65087,0.889 1.93675,0.889 z m -1.016,-4.572 q 0,-0.41275 0.30162,-0.714375 0.30163,-0.301625 0.71438,-0.301625 0.41275,0 0.71437,0.301625 0.30163,0.301625 0.30163,0.714375 0,0.41275 -0.30163,0.714375 -0.30162,0.301625 -0.71437,0.301625 -0.41275,0 -0.71438,-0.301625 -0.30162,-0.301625 -0.30162,-0.714375 z m 9.62024,4.66725 q 0,-0.460375 0.3175,-0.777875 0.33337,-0.333375 0.79375,-0.333375 0.46037,0 0.77787,0.333375 0.33338,0.3175 0.33338,0.777875 v 1.55575 q 0,0.53975 -0.34925,0.889 -0.33338,0.34925 -0.87313,0.34925 h -0.80962 v -0.85725 h 0.74612 q 0.42863,0 0.42863,-0.47625 v -0.396875 q -0.127,0.04762 -0.26988,0.04762 -0.4445,0 -0.77787,-0.3175 -0.3175,-0.333375 -0.3175,-0.79375 z m 0,-6.096 q 0,-0.460375 0.3175,-0.777875 0.33337,-0.333375 0.79375,-0.333375 0.46037,0 0.77787,0.333375 0.33338,0.3175 0.33338,0.777875 0,0.460375 -0.33338,0.79375 -0.3175,0.3175 -0.77787,0.3175 -0.46038,0 -0.79375,-0.3175 -0.3175,-0.333375 -0.3175,-0.79375 z m 9.79487,-3.2385 q 0,-0.460375 0.3175,-0.777875 0.33337,-0.333375 0.79375,-0.333375 0.46037,0 0.77787,0.333375 0.33338,0.3175 0.33338,0.777875 0,0.460375 -0.33338,0.79375 -0.3175,0.3175 -0.77787,0.3175 -0.46038,0 -0.79375,-0.3175 -0.3175,-0.333375 -0.3175,-0.79375 z m -2.25425,9.0805 h 2.76225 v -5.588 h -2.4765 v -1.143 h 3.71475 v 6.731 h 2.57175 v 1.143 h -6.57225 z m 9.68374,-3.20675 v -2.413 l 6.63575,-2.286 v 1.3335 l -6.1595,2.06375 v 0.1905 l 6.1595,2.06375 v 1.3335 z m 15.16062,-3.52425 h 1.41287 l -2.31775,3.7465 v 0.1905 l 2.50825,3.937 h -1.44462 l -2.14313,-3.46075 h -0.28575 l -2.14312,3.46075 h -1.44463 l 2.50825,-3.937 v -0.1905 l -2.31775,-3.7465 h 1.41288 l 1.98437,3.27025 h 0.28575 z m 6.47699,6.985 q 0,-0.460375 0.3175,-0.777875 0.33337,-0.333375 0.79375,-0.333375 0.46037,0 0.77787,0.333375 0.33338,0.3175 0.33338,0.777875 v 1.55575 q 0,0.53975 -0.34925,0.889 -0.33338,0.34925 -0.87313,0.34925 h -0.80962 v -0.85725 h 0.74612 q 0.42863,0 0.42863,-0.47625 v -0.396875 q -0.127,0.04762 -0.26988,0.04762 -0.4445,0 -0.77787,-0.3175 -0.3175,-0.333375 -0.3175,-0.79375 z m 0,-6.096 q 0,-0.460375 0.3175,-0.777875 0.33337,-0.333375 0.79375,-0.333375 0.46037,0 0.77787,0.333375 0.33338,0.3175 0.33338,0.777875 0,0.460375 -0.33338,0.79375 -0.3175,0.3175 -0.77787,0.3175 -0.46038,0 -0.79375,-0.3175 -0.3175,-0.333375 -0.3175,-0.79375 z m 9.79487,-3.2385 q 0,-0.460375 0.3175,-0.777875 0.33338,-0.333375 0.79375,-0.333375 0.46038,0 0.77788,0.333375 0.33337,0.3175 0.33337,0.777875 0,0.460375 -0.33337,0.79375 -0.3175,0.3175 -0.77788,0.3175 -0.46037,0 -0.79375,-0.3175 -0.3175,-0.333375 -0.3175,-0.79375 z m -2.25425,9.0805 h 2.76225 v -5.588 h -2.4765 v -1.143 h 3.71475 v 6.731 h 2.57175 v 1.143 h -6.57225 z m 9.68374,-4.98475 h 2.74637 v -2.746375 h 1.143 v 2.746375 h 2.74638 v 1.143 h -2.74638 v 2.746375 h -1.143 v -2.746375 h -2.74637 z m 9.71548,0 h 2.74638 v -2.746375 h 1.143 v 2.746375 h 2.74637 v 1.143 h -2.74637 v 2.746375 h -1.143 v -2.746375 h -2.74638 z"
         id="text5"
         style="font-size:15.875px;font-family:'SpaceMono Nerd Font Mono';-inkscape-font-specification:'SpaceMono Nerd Font Mono';fill:#ffffff"
         inkscape:label="forloop"
         aria-label="size_t i=0;i&lt;x;i++" />
    </g>
  </g>
</svg>
