<?xml version="1.0" encoding="UTF-8" standalone="no"?>
<!-- Created with Inkscape (http://www.inkscape.org/) -->

<svg
   width="1652.6091"
   height="512.01581"
   viewBox="0 0 437.25282 135.47085"
   version="1.1"
   id="svg1"
   xml:space="preserve"
   inkscape:version="1.4 (e7c3feb100, 2024-10-09)"
   sodipodi:docname="obstruction-w.svg"
   inkscape:export-filename="obstruction-w.png"
   inkscape:export-xdpi="96"
   inkscape:export-ydpi="96"
   xmlns:inkscape="http://www.inkscape.org/namespaces/inkscape"
   xmlns:sodipodi="http://sodipodi.sourceforge.net/DTD/sodipodi-0.dtd"
   xmlns="http://www.w3.org/2000/svg"
   xmlns:svg="http://www.w3.org/2000/svg"><sodipodi:namedview
     id="namedview1"
     pagecolor="#505050"
     bordercolor="#eeeeee"
     borderopacity="1"
     inkscape:showpageshadow="0"
     inkscape:pageopacity="0"
     inkscape:pagecheckerboard="0"
     inkscape:deskcolor="#505050"
     inkscape:document-units="mm"
     inkscape:zoom="0.70710678"
     inkscape:cx="868.32713"
     inkscape:cy="268.70058"
     inkscape:window-width="1908"
     inkscape:window-height="1028"
     inkscape:window-x="0"
     inkscape:window-y="0"
     inkscape:window-maximized="1"
     inkscape:current-layer="layer1" /><defs
     id="defs1"><rect
       x="605"
       y="344.94485"
       width="530"
       height="157.05515"
       id="rect21" /><rect
       x="624"
       y="140"
       width="1258"
       height="307.05133"
       id="rect1" /><inkscape:path-effect
       effect="spiro"
       id="path-effect20"
       is_visible="true"
       lpeversion="1" /><inkscape:path-effect
       effect="spiro"
       id="path-effect19"
       is_visible="true"
       lpeversion="1" /><inkscape:path-effect
       effect="spiro"
       id="path-effect18"
       is_visible="true"
       lpeversion="1" /><inkscape:path-effect
       effect="spiro"
       id="path-effect17"
       is_visible="true"
       lpeversion="1" /><inkscape:path-effect
       effect="spiro"
       id="path-effect16"
       is_visible="true"
       lpeversion="1" /><rect
       x="624"
       y="140"
       width="1258"
       height="307.05133"
       id="rect20" /><rect
       x="605"
       y="344.94485"
       width="530"
       height="157.05515"
       id="rect2" /></defs><g
     inkscape:label="obstruction"
     inkscape:groupmode="layer"
     id="layer1"
     transform="translate(-8.8503046,0.00633401)"><g
       id="g1"
       transform="matrix(-0.99801908,0,0,-0.99801908,135.33034,135.33249)"
       inkscape:label="icon"><g
         inkscape:label="EBO"
         id="layer1-5"
         inkscape:highlight-color="#ba99c0"
         style="display:inline;fill:none;stroke:#ffffff;stroke-width:1.32292;stroke-dasharray:none"><circle
           style="fill:none;stroke:#ffffff;stroke-width:1.32292;stroke-linecap:square;stroke-dasharray:none"
           id="path1"
           r="26.586807"
           cy="67.73333"
           cx="67.73333"
           inkscape:label="core" /><circle
           style="display:inline;fill:none;stroke:#ffffff;stroke-width:0.264583;stroke-linecap:square;stroke-dasharray:none;stroke-opacity:0.5"
           id="path2"
           cx="67.73333"
           cy="67.73333"
           r="38.77837"
           inkscape:label="guide" /><path
           style="display:inline;fill:none;stroke:#ffffff;stroke-width:0.264583;stroke-linecap:square;stroke-dasharray:none;stroke-opacity:0.5"
           id="circle4"
           inkscape:label="guide2"
           sodipodi:type="arc"
           sodipodi:cx="67.73333"
           sodipodi:cy="67.73333"
           sodipodi:rx="67.73333"
           sodipodi:ry="67.73333"
           sodipodi:start="0.52359878"
           sodipodi:end="4.712389"
           sodipodi:open="true"
           sodipodi:arc-type="arc"
           d="M 126.39211,101.59999 A 67.73333,67.73333 0 0 1 44.567166,131.38184 67.73333,67.73333 0 0 1 1.0290216,55.97156 67.73333,67.73333 0 0 1 67.73333,0" /><path
           style="fill:none;stroke:#ffffff;stroke-width:1.32292;stroke-linecap:butt;stroke-dasharray:none"
           d="M 67.73333,41.146523 V 0"
           id="path3"
           inkscape:label="Top"
           sodipodi:nodetypes="cc" /><path
           style="fill:none;stroke:#ffffff;stroke-width:1.32292;stroke-linecap:butt;stroke-dasharray:none"
           d="M 67.73333,94.320137 V 135.46666"
           id="path6"
           inkscape:label="Bottom" /><path
           style="fill:none;stroke:#ffffff;stroke-width:1.32292;stroke-linecap:butt;stroke-dasharray:none"
           d="M 90.75818,81.026734 126.39211,101.6"
           id="path4"
           sodipodi:nodetypes="cc"
           inkscape:label="BRight" /><path
           style="fill:none;stroke:#ffffff;stroke-width:1.32292;stroke-linecap:butt;stroke-dasharray:none"
           d="M 44.70848,81.026734 9.0745496,101.6"
           id="path5"
           sodipodi:nodetypes="cc"
           inkscape:label="BLeft" /><path
           style="fill:none;stroke:#ffffff;stroke-width:1.32292;stroke-linecap:butt;stroke-dasharray:none"
           d="M 44.708479,54.439927 9.0745446,33.866666"
           id="path7"
           sodipodi:nodetypes="cc"
           inkscape:label="TLeft" /></g><g
         id="layer3"
         inkscape:label="Curves"
         style="display:inline"><path
           style="fill:none;stroke:#ffffff;stroke-width:1.32292;stroke-linecap:butt;stroke-dasharray:none"
           d="m 67.73333,0 c 0.09912,6.8621711 -1.664743,13.742292 -5.053174,19.710353 -3.38843,5.968062 -8.392577,11.008479 -14.336011,14.439923 -5.943435,3.431444 -12.810638,5.244953 -19.673346,5.19539 -6.862708,-0.04956 -13.703002,-1.96207 -19.5962546,-5.479"
           id="path16"
           inkscape:label="TL"
           sodipodi:nodetypes="csssc" /><path
           style="fill:none;stroke:#ffffff;stroke-width:1.32292;stroke-linecap:butt;stroke-dasharray:none"
           d="m 9.0745444,33.866666 c 5.9923766,3.345241 11.0688026,8.312855 14.5430806,14.231353 3.474277,5.918497 5.337334,12.772424 5.337335,19.635311 1e-6,6.862887 -1.863055,13.716815 -5.337332,19.635314 C 20.143352,93.287142 15.066926,98.254758 9.0745494,101.6"
           id="path17"
           inkscape:label="L"
           sodipodi:nodetypes="csssc" /><path
           style="fill:none;stroke:#ffffff;stroke-width:1.32292;stroke-linecap:butt;stroke-dasharray:none"
           d="M 67.73333,135.46666 C 67.83262,128.60447 66.068782,121.72429 62.68032,115.75623 59.291857,109.78816 54.287632,104.74778 48.344147,101.31638 42.400691,97.884998 35.533498,96.07153 28.670802,96.121096 21.808107,96.170663 14.967826,98.083134 9.0745496,101.6"
           id="path18"
           inkscape:label="BL"
           sodipodi:nodetypes="csssc" /><path
           style="fill:none;stroke:#ffffff;stroke-width:1.32292;stroke-linecap:butt;stroke-dasharray:none"
           d="m 126.39211,101.6 c -5.89325,-3.516931 -12.73354,-5.42944 -19.59625,-5.479005 -6.862708,-0.04956 -13.729911,1.763943 -19.673345,5.195385 -5.943436,3.43144 -10.947583,8.47186 -14.336014,14.43992 -3.388431,5.96807 -5.152297,12.84819 -5.053171,19.71036"
           id="path19"
           sodipodi:nodetypes="ccssc"
           inkscape:label="BR" /></g><g
         id="layer4"
         inkscape:label="Curves Guides"
         inkscape:highlight-color="#21b1f3"
         style="display:inline;stroke-width:0.264583;stroke-dasharray:none"><g
           id="g11"
           inkscape:label="lines"
           inkscape:highlight-color="#21f37d"><path
             style="fill:none;stroke:#ffffff;stroke-width:0.264583;stroke-linecap:butt;stroke-dasharray:none;stroke-opacity:0.5"
             d="M 67.733332,67.733332 48.344145,34.150276"
             id="path8"
             inkscape:label="TL" /><path
             style="fill:none;stroke:#ffffff;stroke-width:0.264583;stroke-linecap:butt;stroke-dasharray:none;stroke-opacity:0.5"
             d="M 67.73333,67.73333 H 28.95496"
             id="path9"
             inkscape:label="L" /><path
             style="fill:none;stroke:#ffffff;stroke-width:0.264583;stroke-linecap:butt;stroke-dasharray:none;stroke-opacity:0.5"
             d="M 67.733332,67.733332 48.344147,101.31638"
             id="path10"
             inkscape:label="BL" /><path
             style="fill:none;stroke:#ffffff;stroke-width:0.264583;stroke-linecap:butt;stroke-dasharray:none;stroke-opacity:0.5"
             d="m 67.73333,67.73333 19.389185,33.58305"
             id="path11"
             inkscape:label="BR" /></g><path
           style="fill:none;stroke:#ffffff;stroke-width:0.264583;stroke-linecap:butt;stroke-linejoin:bevel;stroke-dasharray:none;stroke-opacity:0.5"
           d="M 67.73333,0 48.344145,34.150276 9.0745444,33.866666 Z"
           id="path12"
           inkscape:label="TL" /><path
           style="fill:none;stroke:#ffffff;stroke-width:0.264583;stroke-linecap:butt;stroke-linejoin:bevel;stroke-dasharray:none;stroke-opacity:0.5"
           d="M 28.95496,67.73333 9.0745444,33.866666 9.0745494,101.6 Z"
           id="path13"
           inkscape:label="L" /><path
           style="fill:none;stroke:#ffffff;stroke-width:0.264583;stroke-linecap:butt;stroke-linejoin:bevel;stroke-dasharray:none;stroke-opacity:0.5"
           d="M 9.0745494,101.6 67.73333,135.46666 48.344147,101.31638 Z"
           id="path14"
           inkscape:label="BL" /><path
           style="fill:none;stroke:#ffffff;stroke-width:0.264583;stroke-linecap:butt;stroke-linejoin:bevel;stroke-dasharray:none;stroke-opacity:0.5"
           d="M 67.73333,135.46666 126.39211,101.6 87.122515,101.31638 Z"
           id="path15"
           inkscape:label="BR" /></g></g><path
       d="m 896.30029,171.53687 h 23.4 v -30.6 h 11.7 v 30.6 h 28.8 v 10.8 h -28.8 v 48.3 q 0,4.5 4.05,4.5 h 21.15 v 10.8 h -25.35 q -5.1,0 -8.4,-3.3 -3.15,-3.3 -3.15,-8.4 v -51.9 h -23.4 z m 90.14993,0 h 26.99998 v 9.9 h 1.8 q 2.85,-6.15 8.1,-9 5.25,-3 12,-3 11.25,0 18.15,7.35 6.9,7.35 7.35,21.45 l -12.3,1.8 q 0,-10.35 -4.95,-14.85 -4.95,-4.65 -12.15,-4.65 -4.65,0 -8.1,1.8 -3.3,1.8 -5.55,4.95 -2.25,3.15 -3.3,7.35 -1.05,4.2 -1.05,9 v 31.5 h 18.9 v 10.8 h -47.69998 v -10.8 h 17.09998 v -52.8 h -15.29998 z m 149.09988,0 h 11.7 v 74.4 h -11.7 v -13.5 h -1.8 q -3.6,7.2 -9.45,11.4 -5.85,4.2 -14.85,4.2 -6.15,0 -11.4,-2.1 -5.1,-1.95 -8.85,-6 -3.6,-4.05 -5.7,-10.05 -1.95,-6 -1.95,-13.95 v -44.4 h 11.7 v 42.9 q 0,11.7 4.8,17.1 4.8,5.4 14.7,5.4 10.65,0 16.65,-7.2 6.15,-7.35 6.15,-19.5 z m 108.3,48 q -1.2,6.15 -4.2,11.4 -2.85,5.25 -7.35,9.15 -4.5,3.75 -10.5,5.85 -6,2.1 -13.35,2.1 -7.8,0 -14.85,-2.55 -6.9,-2.55 -12.15,-7.35 -5.25,-4.95 -8.4,-12 -3,-7.05 -3,-16.2 v -1.8 q 0,-9 3,-16.2 3.15,-7.2 8.4,-12.15 5.25,-4.95 12.15,-7.65 7.05,-2.7 14.85,-2.7 7.05,0 13.05,2.1 6,2.1 10.5,6 4.65,3.75 7.5,9 3,5.25 4.05,11.4 l -11.7,2.7 q -0.45,-3.9 -2.25,-7.5 -1.65,-3.75 -4.65,-6.45 -2.85,-2.85 -7.05,-4.5 -4.2,-1.65 -9.75,-1.65 -5.4,0 -10.2,2.1 -4.65,1.95 -8.25,5.7 -3.6,3.6 -5.7,8.7 -1.95,5.1 -1.95,11.1 v 1.8 q 0,6.3 1.95,11.4 2.1,4.95 5.7,8.4 3.6,3.45 8.4,5.4 4.8,1.8 10.35,1.8 5.55,0 9.6,-1.65 4.2,-1.8 7.05,-4.5 3,-2.85 4.65,-6.45 1.8,-3.6 2.4,-7.5 z m 19.6499,-48 h 23.4 v -30.6 h 11.7 v 30.6 h 28.8 v 10.8 h -28.8 v 48.3 q 0,4.5 4.05,4.5 h 21.15 v 10.8 h -25.35 q -5.1,0 -8.4,-3.3 -3.15,-3.3 -3.15,-8.4 v -51.9 h -23.4 z m 117.4499,-22.2 q 0,-4.35 3,-7.35 3.15,-3.15 7.5,-3.15 4.35,0 7.35,3.15 3.15,3 3.15,7.35 0,4.35 -3.15,7.5 -3,3 -7.35,3 -4.35,0 -7.5,-3 -3,-3.15 -3,-7.5 z m -21.3,85.8 h 26.1 v -52.8 h -23.4 v -10.8 h 35.1 v 63.6 h 24.3 v 10.8 h -62.1 z m 160.2,-25.5 q 0,9.3 -3.15,16.5 -3,7.05 -8.1,12 -5.1,4.8 -12,7.35 -6.75,2.55 -14.1,2.55 -7.5,0 -14.25,-2.55 -6.75,-2.55 -11.85,-7.35 -5.1,-4.95 -8.25,-12 -3,-7.2 -3,-16.5 v -1.8 q 0,-9.15 3,-16.2 3.15,-7.2 8.25,-12.15 5.25,-4.95 12,-7.5 6.75,-2.55 14.1,-2.55 7.35,0 14.1,2.55 6.75,2.55 11.85,7.5 5.25,4.95 8.25,12.15 3.15,7.05 3.15,16.2 z m -37.35,27.3 q 5.4,0 9.9,-1.8 4.65,-1.95 8.1,-5.55 3.45,-3.6 5.4,-8.55 1.95,-5.1 1.95,-11.4 v -1.8 q 0,-6 -1.95,-10.95 -1.95,-5.1 -5.4,-8.7 -3.45,-3.6 -8.1,-5.55 -4.65,-2.1 -9.9,-2.1 -5.25,0 -9.9,2.1 -4.65,1.95 -8.1,5.55 -3.45,3.6 -5.4,8.7 -1.95,4.95 -1.95,10.95 v 1.8 q 0,6.3 1.95,11.4 1.95,4.95 5.4,8.55 3.45,3.6 7.95,5.55 4.65,1.8 10.05,1.8 z m 70.6499,9 h -11.7 v -74.4 h 11.7 v 12.6 h 1.8 q 6.9,-14.7 24,-14.7 12.9,0 20.55,8.1 7.65,7.95 7.65,24 v 44.4 h -11.7 v -42 q 0,-11.7 -5.25,-17.55 -5.25,-5.85 -14.25,-5.85 -10.65,0 -16.8,7.35 -6,7.2 -6,19.35 z"
       id="text1"
       style="font-size:150px;line-height:0.9;font-family:'SpaceMono Nerd Font';-inkscape-font-specification:'SpaceMono Nerd Font';text-align:center;white-space:pre;fill:#ffffff;stroke-width:5;stroke-linecap:square;stroke-linejoin:bevel"
       inkscape:label="text"
       transform="matrix(0.26458333,0,0,0.26458333,20.878099,16.553163)"
       aria-label="truction" /><path
       d="m 1198.5501,209.63687 q 0,9.3 -3.15,16.5 -3,7.05 -8.1,12 -5.1,4.8 -12,7.35 -6.75,2.55 -14.1,2.55 -7.5,0 -14.25,-2.55 -6.75,-2.55 -11.85,-7.35 -5.1,-4.95 -8.25,-12 -3,-7.2 -3,-16.5 v -1.8 q 0,-9.15 3,-16.2 3.15,-7.2 8.25,-12.15 5.25,-4.95 12,-7.5 6.75,-2.55 14.1,-2.55 7.35,0 14.1,2.55 6.75,2.55 11.85,7.5 5.25,4.95 8.25,12.15 3.15,7.05 3.15,16.2 z m -37.35,27.3 q 5.4,0 9.9,-1.8 4.65,-1.95 8.1,-5.55 3.45,-3.6 5.4,-8.55 1.95,-5.1 1.95,-11.4 v -1.8 q 0,-6 -1.95,-10.95 -1.95,-5.1 -5.4,-8.7 -3.45,-3.6 -8.1,-5.55 -4.65,-2.1 -9.9,-2.1 -5.25,0 -9.9,2.1 -4.65,1.95 -8.1,5.55 -3.45,3.6 -5.4,8.7 -1.95,4.95 -1.95,10.95 v 1.8 q 0,6.3 1.95,11.4 1.95,4.95 5.4,8.55 3.45,3.6 7.95,5.55 4.65,1.8 10.05,1.8 z m 67.9499,9 h -11.7 v -105 h 11.7 v 42.3 h 1.8 q 3.9,-6.75 10.8,-10.2 6.9,-3.6 15,-3.6 6.9,0 13.05,2.55 6.15,2.55 10.8,7.35 4.8,4.8 7.5,11.85 2.85,7.05 2.85,16.05 v 3 q 0,9.15 -2.7,16.2 -2.7,7.05 -7.5,11.85 -4.65,4.8 -10.95,7.35 -6.3,2.4 -13.35,2.4 -3.6,0 -7.35,-0.9 -3.75,-0.75 -7.2,-2.4 -3.3,-1.8 -6.15,-4.2 -2.85,-2.55 -4.8,-6 h -1.8 z m 24.9,-9 q 5.4,0 9.9,-1.8 4.5,-1.95 7.8,-5.4 3.45,-3.45 5.25,-8.4 1.95,-4.95 1.95,-11.1 v -3 q 0,-6 -1.95,-10.8 -1.8,-4.95 -5.25,-8.4 -3.3,-3.6 -7.95,-5.55 -4.5,-1.95 -9.75,-1.95 -5.25,0 -9.75,2.1 -4.5,1.95 -7.95,5.55 -3.3,3.6 -5.25,8.7 -1.95,4.95 -1.95,10.95 v 1.8 q 0,6.15 1.95,11.25 1.95,4.95 5.25,8.55 3.45,3.6 7.95,5.55 4.5,1.95 9.75,1.95 z m 73.35,-46.2 q 0,5.4 4.5,8.25 4.65,2.85 16.8,3.75 13.05,1.05 19.8,6.3 6.9,5.1 6.9,15 v 0.9 q 0,5.4 -2.25,9.75 -2.1,4.2 -6,7.2 -3.75,3 -9.3,4.5 -5.4,1.65 -11.85,1.65 -8.7,0 -15,-2.25 -6.15,-2.4 -10.35,-6.15 -4.05,-3.9 -6.15,-8.7 -2.1,-4.95 -2.4,-9.9 l 11.1,-2.7 q 0.75,8.55 6.6,13.8 5.85,5.1 15.6,5.1 8.25,0 13.2,-3.15 5.1,-3.3 5.1,-9.15 0,-6.3 -4.95,-9 -4.95,-2.7 -16.05,-3.45 -12.9,-0.9 -19.8,-6 -6.9,-5.1 -6.9,-14.85 v -0.9 q 0,-5.25 2.25,-9.15 2.25,-4.05 6,-6.75 3.9,-2.7 8.7,-4.05 4.8,-1.35 10.05,-1.35 7.35,0 12.9,2.1 5.55,1.95 9.3,5.25 3.75,3.15 5.7,7.35 2.1,4.2 2.7,8.4 l -11.1,2.7 q -0.75,-7.2 -5.85,-11.25 -4.95,-4.05 -13.05,-4.05 -3.15,0 -6.15,0.75 -2.85,0.6 -5.1,1.95 -2.25,1.35 -3.6,3.45 -1.35,1.95 -1.35,4.65 z"
       id="text20"
       style="font-size:150px;line-height:0.9;font-family:'SpaceMono Nerd Font';-inkscape-font-specification:'SpaceMono Nerd Font';text-align:center;white-space:pre;fill:#ffffff;stroke-width:5;stroke-linecap:square;stroke-linejoin:bevel"
       inkscape:label="text"
       transform="matrix(0.26458333,0,0,0.26458333,-140.54059,16.553163)"
       aria-label="obs" /><path
       style="fill:#ffffff;stroke:none;stroke-width:0.877122;stroke-linecap:square;stroke-linejoin:bevel"
       d="m 215.8851,112.64185 38.08707,-89.817028 h 2.95219 l -38.08707,89.817028 z"
       id="path20"
       inkscape:label="left-sl"
       sodipodi:nodetypes="ccccc" /><path
       style="fill:#ffffff;stroke:none;stroke-width:0.877122;stroke-linecap:square;stroke-linejoin:bevel"
       d="m 227.52724,112.64184 38.08707,-89.817018 h 2.95219 l -38.08707,89.817018 z"
       id="path20-4"
       inkscape:label="left-sl"
       sodipodi:nodetypes="ccccc" /></g><g
     inkscape:groupmode="layer"
     id="layer2"
     inkscape:label="subtitle"
     transform="translate(-8.8503046,0.00633401)"><path
       d="m 809.84405,370.37016 h -2.808 v -17.856 h 2.808 v 3.024 h 0.432 q 1.656,-3.528 5.76,-3.528 3.096,0 4.932,1.944 1.836,1.908 1.836,5.76 v 10.656 h -2.808 v -10.08 q 0,-2.808 -1.26,-4.212 -1.26,-1.404 -3.42,-1.404 -2.556,0 -4.032,1.764 -1.44,1.728 -1.44,4.644 z m 21.27599,-8.064 q 0.108,2.664 1.656,4.284 1.548,1.62 4.32,1.62 1.26,0 2.196,-0.288 0.936,-0.288 1.584,-0.792 0.684,-0.504 1.08,-1.152 0.432,-0.684 0.684,-1.44 l 2.664,0.72 q -0.756,2.484 -2.808,4.068 -2.016,1.548 -5.472,1.548 -1.908,0 -3.528,-0.648 -1.584,-0.684 -2.736,-1.908 -1.152,-1.224 -1.8,-2.916 -0.648,-1.692 -0.648,-3.744 v -0.864 q 0,-1.872 0.648,-3.492 0.684,-1.62 1.872,-2.772 1.188,-1.188 2.772,-1.836 1.62,-0.684 3.492,-0.684 2.196,0 3.78,0.828 1.62,0.792 2.628,1.98 1.044,1.188 1.512,2.592 0.504,1.404 0.504,2.592 v 2.304 z m 5.976,-7.632 q -1.188,0 -2.232,0.396 -1.008,0.36 -1.8,1.044 -0.756,0.684 -1.26,1.62 -0.468,0.9 -0.612,1.98 h 11.52 q -0.072,-1.152 -0.576,-2.088 -0.468,-0.936 -1.26,-1.584 -0.756,-0.648 -1.764,-1.008 -0.972,-0.36 -2.016,-0.36 z m 27.57598,12.96 h -0.432 q -0.864,1.62 -2.376,2.448 -1.476,0.792 -3.24,0.792 -1.8,0 -3.384,-0.612 -1.584,-0.612 -2.808,-1.764 -1.188,-1.152 -1.908,-2.844 -0.684,-1.728 -0.684,-3.924 v -0.576 q 0,-2.16 0.72,-3.852 0.72,-1.728 1.908,-2.88 1.188,-1.188 2.772,-1.8 1.584,-0.612 3.312,-0.612 1.944,0 3.384,0.864 1.476,0.828 2.304,2.448 h 0.432 v -2.808 h 2.808 v 22.248 q 0,1.224 -0.792,2.016 -0.756,0.792 -1.98,0.792 h -11.628 v -2.592 h 10.62 q 0.972,0 0.972,-1.08 z m -5.976,0.576 q 1.26,0 2.34,-0.468 1.08,-0.468 1.872,-1.332 0.828,-0.864 1.296,-2.052 0.468,-1.224 0.468,-2.7 v -0.432 q 0,-1.44 -0.468,-2.628 -0.468,-1.224 -1.296,-2.088 -0.792,-0.864 -1.908,-1.332 -1.08,-0.504 -2.304,-0.504 -1.26,0 -2.376,0.468 -1.08,0.468 -1.908,1.332 -0.792,0.864 -1.26,2.052 -0.432,1.188 -0.432,2.628 v 0.576 q 0,1.512 0.432,2.7 0.468,1.188 1.26,2.052 0.828,0.828 1.908,1.296 1.08,0.432 2.376,0.432 z m 16.48798,-5.904 q 0.108,2.664 1.656,4.284 1.548,1.62 4.32,1.62 1.26,0 2.196,-0.288 0.936,-0.288 1.584,-0.792 0.684,-0.504 1.08,-1.152 0.432,-0.684 0.684,-1.44 l 2.664,0.72 q -0.756,2.484 -2.808,4.068 -2.016,1.548 -5.472,1.548 -1.908,0 -3.528,-0.648 -1.584,-0.684 -2.736,-1.908 -1.152,-1.224 -1.8,-2.916 -0.648,-1.692 -0.648,-3.744 v -0.864 q 0,-1.872 0.648,-3.492 0.684,-1.62 1.872,-2.772 1.188,-1.188 2.772,-1.836 1.62,-0.684 3.492,-0.684 2.196,0 3.78,0.828 1.62,0.792 2.628,1.98 1.044,1.188 1.512,2.592 0.504,1.404 0.504,2.592 v 2.304 z m 5.976,-7.632 q -1.188,0 -2.232,0.396 -1.008,0.36 -1.8,1.044 -0.756,0.684 -1.26,1.62 -0.468,0.9 -0.612,1.98 h 11.52 q -0.072,-1.152 -0.576,-2.088 -0.468,-0.936 -1.26,-1.584 -0.756,-0.648 -1.764,-1.008 -0.972,-0.36 -2.016,-0.36 z m 16.81198,15.696 h -2.808 v -17.856 h 2.808 v 3.024 h 0.432 q 1.656,-3.528 5.76,-3.528 3.096,0 4.932,1.944 1.836,1.908 1.836,5.76 v 10.656 h -2.808 v -10.08 q 0,-2.808 -1.26,-4.212 -1.26,-1.404 -3.42,-1.404 -2.556,0 -4.032,1.764 -1.44,1.728 -1.44,4.644 z m 26.67598,-25.2 h 5.868 v 17.64 h 3.888 v 2.808 h -3.888 v 4.752 h -3.024 v -4.752 h -11.664 v -4.176 z m -6.228,17.208 v 0.432 h 9.072 v -16.344 h -0.432 z"
       id="text21"
       style="font-size:36px;line-height:0.9;font-family:'SpaceMono Nerd Font';-inkscape-font-specification:'SpaceMono Nerd Font';text-align:center;white-space:pre;fill:#ffffff;stroke-width:5;stroke-linecap:square;stroke-linejoin:bevel"
       inkscape:label="negen4"
       transform="matrix(0.26458333,0,0,0.26458333,-31.342613,-2.9104167)"
       aria-label="negen4" /><path
       d="m 765.5281,367.63416 h -0.432 q -0.864,1.62 -2.376,2.448 -1.476,0.792 -3.24,0.792 -1.8,0 -3.384,-0.612 -1.584,-0.612 -2.808,-1.764 -1.188,-1.152 -1.908,-2.844 -0.684,-1.728 -0.684,-3.924 v -0.576 q 0,-2.16 0.72,-3.852 0.72,-1.728 1.908,-2.88 1.188,-1.188 2.772,-1.8 1.584,-0.612 3.312,-0.612 1.944,0 3.384,0.864 1.476,0.828 2.304,2.448 h 0.432 v -2.808 h 2.808 v 22.248 q 0,1.224 -0.792,2.016 -0.756,0.792 -1.98,0.792 h -11.628 v -2.592 h 10.62 q 0.972,0 0.972,-1.08 z m -5.976,0.576 q 1.26,0 2.34,-0.468 1.08,-0.468 1.872,-1.332 0.828,-0.864 1.296,-2.052 0.468,-1.224 0.468,-2.7 v -0.432 q 0,-1.44 -0.468,-2.628 -0.468,-1.224 -1.296,-2.088 -0.792,-0.864 -1.908,-1.332 -1.08,-0.504 -2.304,-0.504 -1.26,0 -2.376,0.468 -1.08,0.468 -1.908,1.332 -0.792,0.864 -1.26,2.052 -0.432,1.188 -0.432,2.628 v 0.576 q 0,1.512 0.432,2.7 0.468,1.188 1.26,2.052 0.828,0.828 1.908,1.296 1.08,0.432 2.376,0.432 z m 27.39598,-0.864 h -0.432 q -0.864,1.8 -2.412,2.664 -1.512,0.864 -3.204,0.864 -1.764,0 -3.276,-0.576 -1.512,-0.612 -2.664,-1.764 -1.116,-1.188 -1.764,-2.88 -0.648,-1.692 -0.648,-3.924 v -0.576 q 0,-2.196 0.648,-3.888 0.648,-1.692 1.764,-2.844 1.152,-1.188 2.664,-1.8 1.512,-0.612 3.204,-0.612 1.836,0 3.312,0.828 1.512,0.792 2.376,2.484 h 0.432 v -2.808 h 2.808 v 14.184 q 0,1.08 0.972,1.08 h 0.9 v 2.592 h -1.908 q -1.224,0 -2.016,-0.792 -0.756,-0.792 -0.756,-2.016 z m -5.76,0.864 q 1.26,0 2.304,-0.468 1.08,-0.468 1.836,-1.332 0.756,-0.864 1.188,-2.052 0.432,-1.224 0.432,-2.7 v -0.432 q 0,-1.44 -0.432,-2.628 -0.432,-1.224 -1.224,-2.088 -0.756,-0.864 -1.836,-1.332 -1.044,-0.504 -2.268,-0.504 -1.26,0 -2.304,0.468 -1.044,0.468 -1.836,1.332 -0.756,0.828 -1.188,2.052 -0.432,1.188 -0.432,2.628 v 0.576 q 0,3.06 1.584,4.788 1.62,1.692 4.176,1.692 z m 32.00398,2.16 h -2.808 v -12.816 q 0,-1.26 -0.576,-2.052 -0.576,-0.828 -1.836,-0.828 -1.188,0 -1.944,0.9 -0.72,0.864 -0.72,2.7 v 12.096 h -2.808 v -12.96 q 0,-1.188 -0.648,-1.944 -0.648,-0.792 -1.728,-0.792 -1.296,0 -2.016,0.936 -0.684,0.936 -0.684,2.448 v 12.312 h -2.808 v -17.856 h 2.808 v 1.944 h 0.432 q 0.468,-1.26 1.368,-1.836 0.9,-0.612 2.124,-0.612 1.296,0 2.124,0.684 0.864,0.684 1.188,1.764 h 0.432 q 1.224,-2.448 3.888,-2.448 2.016,0 3.096,1.296 1.116,1.26 1.116,3.312 z m 6.91198,-8.064 q 0.108,2.664 1.656,4.284 1.548,1.62 4.32,1.62 1.26,0 2.196,-0.288 0.936,-0.288 1.584,-0.792 0.684,-0.504 1.08,-1.152 0.432,-0.684 0.684,-1.44 l 2.664,0.72 q -0.756,2.484 -2.808,4.068 -2.016,1.548 -5.472,1.548 -1.908,0 -3.528,-0.648 -1.584,-0.684 -2.736,-1.908 -1.152,-1.224 -1.8,-2.916 -0.648,-1.692 -0.648,-3.744 v -0.864 q 0,-1.872 0.648,-3.492 0.684,-1.62 1.872,-2.772 1.188,-1.188 2.772,-1.836 1.62,-0.684 3.492,-0.684 2.196,0 3.78,0.828 1.62,0.792 2.628,1.98 1.044,1.188 1.512,2.592 0.504,1.404 0.504,2.592 v 2.304 z m 5.976,-7.632 q -1.188,0 -2.232,0.396 -1.008,0.36 -1.8,1.044 -0.756,0.684 -1.26,1.62 -0.468,0.9 -0.612,1.98 h 11.52 q -0.072,-1.152 -0.576,-2.088 -0.468,-0.936 -1.26,-1.584 -0.756,-0.648 -1.764,-1.008 -0.972,-0.36 -2.016,-0.36 z m 38.08797,7.632 q 0.108,2.664 1.656,4.284 1.548,1.62 4.32,1.62 1.26,0 2.196,-0.288 0.936,-0.288 1.584,-0.792 0.684,-0.504 1.08,-1.152 0.432,-0.684 0.684,-1.44 l 2.664,0.72 q -0.756,2.484 -2.808,4.068 -2.016,1.548 -5.472,1.548 -1.908,0 -3.528,-0.648 -1.584,-0.684 -2.736,-1.908 -1.152,-1.224 -1.8,-2.916 -0.648,-1.692 -0.648,-3.744 v -0.864 q 0,-1.872 0.648,-3.492 0.684,-1.62 1.872,-2.772 1.188,-1.188 2.772,-1.836 1.62,-0.684 3.492,-0.684 2.196,0 3.78,0.828 1.62,0.792 2.628,1.98 1.044,1.188 1.512,2.592 0.504,1.404 0.504,2.592 v 2.304 z m 5.976,-7.632 q -1.188,0 -2.232,0.396 -1.008,0.36 -1.8,1.044 -0.756,0.684 -1.26,1.62 -0.468,0.9 -0.612,1.98 h 11.52 q -0.072,-1.152 -0.576,-2.088 -0.468,-0.936 -1.26,-1.584 -0.756,-0.648 -1.764,-1.008 -0.972,-0.36 -2.016,-0.36 z m 16.81198,15.696 h -2.808 v -17.856 h 2.808 v 3.024 h 0.432 q 1.656,-3.528 5.76,-3.528 3.096,0 4.932,1.944 1.836,1.908 1.836,5.76 v 10.656 h -2.808 v -10.08 q 0,-2.808 -1.26,-4.212 -1.26,-1.404 -3.42,-1.404 -2.556,0 -4.032,1.764 -1.44,1.728 -1.44,4.644 z m 32.79598,-2.736 h -0.432 q -0.864,1.62 -2.376,2.448 -1.476,0.792 -3.24,0.792 -1.8,0 -3.384,-0.612 -1.584,-0.612 -2.808,-1.764 -1.188,-1.152 -1.908,-2.844 -0.684,-1.728 -0.684,-3.924 v -0.576 q 0,-2.16 0.72,-3.852 0.72,-1.728 1.908,-2.88 1.188,-1.188 2.772,-1.8 1.584,-0.612 3.312,-0.612 1.944,0 3.384,0.864 1.476,0.828 2.304,2.448 h 0.432 v -2.808 h 2.808 v 22.248 q 0,1.224 -0.792,2.016 -0.756,0.792 -1.98,0.792 h -11.628 v -2.592 h 10.62 q 0.972,0 0.972,-1.08 z m -5.976,0.576 q 1.26,0 2.34,-0.468 1.08,-0.468 1.872,-1.332 0.828,-0.864 1.296,-2.052 0.468,-1.224 0.468,-2.7 v -0.432 q 0,-1.44 -0.468,-2.628 -0.468,-1.224 -1.296,-2.088 -0.792,-0.864 -1.908,-1.332 -1.08,-0.504 -2.304,-0.504 -1.26,0 -2.376,0.468 -1.08,0.468 -1.908,1.332 -0.792,0.864 -1.26,2.052 -0.432,1.188 -0.432,2.628 v 0.576 q 0,1.512 0.432,2.7 0.468,1.188 1.26,2.052 0.828,0.828 1.908,1.296 1.08,0.432 2.376,0.432 z m 19.97999,-21.024 q 0,-1.044 0.72,-1.764 0.756,-0.756 1.8,-0.756 1.044,0 1.764,0.756 0.756,0.72 0.756,1.764 0,1.044 -0.756,1.8 -0.72,0.72 -1.764,0.72 -1.044,0 -1.8,-0.72 -0.72,-0.756 -0.72,-1.8 z m -5.112,20.592 h 6.264 v -12.672 h -5.616 v -2.592 h 8.424 v 15.264 h 5.832 v 2.592 h -14.904 z m 24.40798,2.592 h -2.808 v -17.856 h 2.808 v 3.024 h 0.432 q 1.656,-3.528 5.76,-3.528 3.096,0 4.932,1.944 1.836,1.908 1.836,5.76 v 10.656 h -2.808 v -10.08 q 0,-2.808 -1.26,-4.212 -1.26,-1.404 -3.42,-1.404 -2.556,0 -4.032,1.764 -1.44,1.728 -1.44,4.644 z m 21.27598,-8.064 q 0.108,2.664 1.656,4.284 1.548,1.62 4.32,1.62 1.26,0 2.196,-0.288 0.936,-0.288 1.584,-0.792 0.684,-0.504 1.08,-1.152 0.432,-0.684 0.684,-1.44 l 2.664,0.72 q -0.756,2.484 -2.808,4.068 -2.016,1.548 -5.472,1.548 -1.908,0 -3.528,-0.648 -1.584,-0.684 -2.736,-1.908 -1.152,-1.224 -1.8,-2.916 -0.648,-1.692 -0.648,-3.744 v -0.864 q 0,-1.872 0.648,-3.492 0.684,-1.62 1.872,-2.772 1.188,-1.188 2.772,-1.836 1.62,-0.684 3.492,-0.684 2.196,0 3.78,0.828 1.62,0.792 2.628,1.98 1.044,1.188 1.512,2.592 0.504,1.404 0.504,2.592 v 2.304 z m 5.976,-7.632 q -1.188,0 -2.232,0.396 -1.008,0.36 -1.8,1.044 -0.756,0.684 -1.26,1.62 -0.468,0.9 -0.612,1.98 h 11.52 q -0.072,-1.152 -0.576,-2.088 -0.468,-0.936 -1.26,-1.584 -0.756,-0.648 -1.764,-1.008 -0.972,-0.36 -2.016,-0.36 z"
       id="text2"
       style="font-size:36px;line-height:0.9;font-family:'SpaceMono Nerd Font';-inkscape-font-specification:'SpaceMono Nerd Font';text-align:center;white-space:pre;fill:#ffffff;stroke-width:5;stroke-linecap:square;stroke-linejoin:bevel"
       inkscape:label="game-engine"
       transform="matrix(0.26458333,0,0,0.26458333,47.218584,-2.9104167)"
       aria-label="game engine" /></g></svg>
